# xmcd CD database file
#
# Track frame offsets:
#	150
#	9330
#	78750
#	111588
#	124775
#	162460
#	186112
#
# Disc length: 3110 seconds
#
# Revision: 0
# Processed by: cddbd v1.5.1PL2 Copyright (c) Steve Scherf et al.
# Submitted via: CDex 1.51
#
DISCID=510c2407
DTITLE=Emler Tchamitchian Echampard - A quelle distance sommes -nous?
DYEAR=2006
DGENRE=Jazz
TTITLE0=Musiciens miniatures
TTITLE1=Quelque chose à dire
TTITLE2=L'hiver sans froid (à Claude)
TTITLE3=Un jour de libre
TTITLE4=Loin du compte
TTITLE5=mention dyptique
TTITLE6=Voyage en comptine
EXTD=YEAR: 2006
EXTT0=
EXTT1=
EXTT2=
EXTT3=
EXTT4=
EXTT5=
EXTT6=
PLAYORDER=
